<?xml version="1.0" encoding="utf-8"?>
<!-- Svg Vector Icons : http://www.onlinewebfonts.com/icon -->
<!DOCTYPE svg PUBLIC "-//W3C//DTD SVG 1.1//EN" "http://www.w3.org/Graphics/SVG/1.1/DTD/svg11.dtd">
<svg version="1.1" xmlns="http://www.w3.org/2000/svg" xmlns:xlink="http://www.w3.org/1999/xlink" x="0px" y="0px" viewBox="0 0 1000 1000" enable-background="new 0 0 1000 1000" xml:space="preserve">
<metadata> Svg Vector Icons : http://www.onlinewebfonts.com/icon </metadata>
<g><g transform="translate(0.000000,512.000000) scale(0.100000,-0.100000)"><path style="fill:#ededed" d="M5129,5051.1l-48.7-46.7V2637V269.7L5129,223c27.3-29.2,70.1-48.7,103.2-48.7c79.8,0,3734,2739.2,3753.5,2815.1c7.8,27.3,3.9,70.1-7.8,93.4c-37,81.8-309.6,391.3-537.3,611.3c-790.4,759.3-1804.7,1242.1-2893,1376.4C5218.6,5111.5,5185.5,5109.5,5129,5051.1z M5722.8,4727.9C6532.7,4591.6,7290,4249,7942.2,3723.4c247.3-198.6,689.2-650.2,660-675.5c-3.9-3.9-728.1-547.1-1608.1-1207L5391.9,641.5v2063.6v2063.6h46.7C5463.9,4768.8,5592.4,4751.3,5722.8,4727.9z"/><path style="fill:#ededed" d="M4340.6,4533.2c-1072.7-107.1-2090.9-591.8-2861.8-1360.8c-381.6-379.6-652.2-761.2-897.5-1255.7C230.8,1206.1,79,509.1,102.3-283.2c21.4-724.2,169.4-1323.8,482.8-1956.6c467.2-942.3,1195.4-1670.4,2129.8-2131.8c477-235.6,903.3-369.9,1421.2-449.7c323.2-48.7,1018.2-50.6,1329.7,0c455.6,70.1,897.5,200.5,1298.5,381.6c366,165.5,443.9,231.7,414.7,346.5c-5.8,17.5-572.4,903.3-1259.6,1968.2L4671.6-187.8v2318.7v2320.6l-42.8,38.9C4566.4,4546.9,4531.4,4550.8,4340.6,4533.2z M4360.1,1971.2V-283.2l1216.7-1884.5c669.7-1037.7,1216.8-1892.3,1216.8-1900.1c0-9.7-58.4-42.8-130.4-75.9c-1491.3-683.3-3204.5-500.3-4512.7,482.8c-776.8,584-1366.7,1469.9-1606.1,2408.2c-83.7,336.8-116.8,574.3-130.4,950c-17.5,496.4,35,916.9,169.4,1384.2c371.8,1277.1,1353,2355.7,2597.1,2850.2c334.9,132.4,782.6,245.3,1156.4,290.1C4354.2,4223.7,4360.1,3762.3,4360.1,1971.2z"/><path style="fill:#ededed" d="M7163.5,1157.4C6141.4,392.3,5284.8-256,5261.4-283.2c-25.3-29.2-44.8-70.1-44.8-95.4c0-50.6,2369.3-3736,2447.2-3804.1c75.9-68.1,140.2-44.8,354.3,128.5C9011-3252.1,9661.3-2107.4,9861.8-808.8c50.6,323.2,50.6,1109.7,2,1421.2c-97.3,613.3-253.1,1103.9-514,1612c-136.3,266.7-185,325.1-264.8,325.1C9032.4,2549.4,8699.5,2306.1,7163.5,1157.4z M9118.1,1990.7c459.4-922.8,597.7-2075.3,369.9-3099.4c-208.3-930.6-681.4-1779.4-1353-2425.7c-101.2-97.3-220-204.4-264.8-239.5l-79.8-62.3L6698.2-2144.4C6098.6-1213.8,5604.1-442.9,5602.1-431.2c-3.9,17.5,3395.3,2587.3,3424.5,2591.2C9030.5,2160.1,9069.4,2084.1,9118.1,1990.7z"/></g></g>
</svg>
